<svg width="64" height="64" viewBox="0 0 64 64" fill="none" xmlns="http://www.w3.org/2000/svg">
<g id="Group 49">
<path id="Ellipse 23 (Stroke)" fill-rule="evenodd" clip-rule="evenodd" d="M32 62C48.5685 62 62 48.5685 62 32C62 15.4315 48.5685 2 32 2C15.4315 2 2 15.4315 2 32C2 48.5685 15.4315 62 32 62ZM32 64C49.6731 64 64 49.6731 64 32C64 14.3269 49.6731 0 32 0C14.3269 0 0 14.3269 0 32C0 49.6731 14.3269 64 32 64Z" fill="#194BAA"/>
<path id="Vector" d="M44 34.8043L32 47L20 34.8043L22.3077 32.5197L30.4354 40.8015V17H33.6108V40.8015L41.8447 32.5197L44 34.8043Z" fill="#194BAA"/>
</g>
</svg>
