<svg width="205" height="58" viewBox="0 0 205 58" fill="none" xmlns="http://www.w3.org/2000/svg">
<g id="Frame" clip-path="url(#clip0_401_46)">
<path id="Vector" d="M84.5699 40.3729H80.5635V11.522H84.5699V22.4911C85.9561 20.2014 88.0955 18.6758 90.9801 18.6758C95.2991 18.6758 98.1489 21.4858 98.1489 26.591V40.3729H94.1425V27.9568C94.1425 24.2986 92.556 22.25 89.5859 22.25C86.8535 22.25 84.5565 24.5804 84.5565 28.3578L84.5699 40.3729Z" fill="#161616"/>
<path id="Vector_2" d="M116.148 37.0862C114.842 39.4572 112.505 40.7823 109.415 40.7823C105.058 40.7823 102.203 38.2514 102.203 34.3547C102.203 30.1762 105.488 28.0057 111.746 28.0057C113.057 27.9999 114.367 28.0804 115.667 28.2469V26.6779C115.667 23.624 114.043 21.8979 111.271 21.8979C108.333 21.8979 106.559 23.6647 106.439 26.64H102.796C102.994 21.8572 106.362 18.6841 111.271 18.6841C116.461 18.6841 119.471 21.6648 119.471 26.7186V40.3812H116.143L116.148 37.0862ZM110.208 37.8991C113.573 37.8991 115.673 35.7692 115.673 32.5148V30.7859C114.452 30.6216 113.221 30.541 111.989 30.5448C107.983 30.5448 106.009 31.7506 106.009 34.2409C106.009 36.4358 107.633 37.8828 110.208 37.8828V37.8991Z" fill="#161616"/>
<path id="Vector_3" d="M131.605 40.3728V19.0767H135.612V40.3728H131.605Z" fill="#161616"/>
<path id="Vector_4" d="M123.539 41.939C123.539 42.4077 123.707 42.8603 124.012 43.2126C124.223 43.4538 124.399 43.6868 124.33 43.9117C124.268 44.1174 124.16 44.3057 124.014 44.4622C123.869 44.6187 123.69 44.7391 123.491 44.8141C123.267 44.9028 123.024 44.9314 122.785 44.8973C122.546 44.8631 122.321 44.7673 122.129 44.619C121.732 44.3186 121.394 43.9455 121.133 43.5188C120.833 43.0458 120.399 42.6763 119.888 42.4593C119.588 42.3389 119.267 42.2841 118.944 42.2986C118.622 42.3131 118.307 42.3965 118.018 42.5433C117.723 42.6559 117.453 42.8269 117.224 43.0465C116.995 43.2661 116.811 43.5298 116.683 43.8223C116.543 44.1518 116.481 44.51 116.502 44.8682C116.524 45.2264 116.628 45.5745 116.806 45.8845C117.043 46.3463 117.382 46.7463 117.796 47.0528C118.211 47.3594 118.69 47.5642 119.196 47.6512C120.361 47.8499 121.696 47.6286 123.203 46.9873C124.934 46.2476 126.536 45.0905 127.244 43.4646C127.441 42.9927 127.539 42.484 127.53 41.9715V19.0767H123.523V41.939H123.539Z" fill="#161616"/>
<path id="Vector_5" d="M139.658 40.3728V19.0767H143.381V22.5994C144.808 20.1606 147.065 18.6621 149.955 18.6621C153.045 18.6621 155.382 20.269 156.333 23.0818C157.797 20.3476 160.214 18.6621 163.422 18.6621C167.738 18.6621 170.51 21.5128 170.51 26.5774V40.3593H166.504V27.8726C166.504 24.3364 164.957 22.2471 162.027 22.2471C159.295 22.2471 157.078 24.5775 157.078 28.1544V40.3701H153.072V27.8726C153.072 24.3364 151.528 22.2471 148.595 22.2471C145.823 22.2471 143.646 24.5775 143.646 28.1544V40.3701L139.658 40.3728Z" fill="#161616"/>
<path id="Vector_6" d="M174.805 31.5634C173.593 25.3742 176.862 20.0062 182.535 18.8626C188.678 17.627 193.739 21.8434 194.367 28.7696L179.023 31.8614C180.166 36.0535 182.762 38.1156 186.207 37.4192C189.121 36.8312 190.823 34.807 190.951 31.9563L194.837 31.1731C194.736 36.0264 191.75 39.5382 186.894 40.5165C180.962 41.7142 176.103 38.1454 174.805 31.5634ZM178.544 29.2113L189.693 26.9649C188.742 23.1414 186.221 21.231 183.042 21.8732C179.864 22.5154 178.219 25.2225 178.544 29.2113Z" fill="#161616"/>
<path id="Vector_7" d="M201.95 40.5734C201.545 40.5894 201.141 40.5203 200.764 40.3704C200.387 40.2206 200.044 39.9932 199.758 39.7026C199.472 39.412 199.247 39.0644 199.1 38.6817C198.952 38.299 198.884 37.8895 198.9 37.4788C198.9 35.582 200.168 34.3057 201.95 34.3057C203.771 34.3057 205 35.5901 205 37.4788C205 39.2862 203.771 40.5734 201.95 40.5734Z" fill="#161616"/>
<g id="Group 3">
<path id="Vector_8" d="M48.795 8.49268L39.7939 10.9423L46.3832 17.6273L48.795 8.49268Z" fill="#A02828"/>
<path id="Vector_9" d="M57.1692 29L49.0977 24.2715V33.7286L57.1692 29Z" fill="#A02828"/>
<path id="Vector_10" d="M48.795 49.505L46.3832 40.373L39.7939 47.0581L48.795 49.505Z" fill="#A02828"/>
<path id="Vector_11" d="M28.5846 58L33.2454 49.811H23.9238L28.5846 58Z" fill="#A02828"/>
<path id="Vector_12" d="M8.37109 49.505L17.3748 47.0581L10.7856 40.373L8.37109 49.505Z" fill="#A02828"/>
<path id="Vector_13" d="M0 29L8.07158 33.7286V24.2715L0 29Z" fill="#A02828"/>
<path id="Vector_14" d="M8.37109 8.49268L10.7856 17.6273L17.3748 10.9423L8.37109 8.49268Z" fill="#A02828"/>
<path id="Vector_15" d="M28.5846 0L23.9238 8.18894H33.2454L28.5846 0Z" fill="#A02828"/>
<path id="Vector_16" d="M28.5845 41.9528C35.6355 41.9528 41.3516 36.1537 41.3516 29.0001C41.3516 21.8465 35.6355 16.0474 28.5845 16.0474C21.5334 16.0474 15.8174 21.8465 15.8174 29.0001C15.8174 36.1537 21.5334 41.9528 28.5845 41.9528Z" fill="#A02828"/>
</g>
<path id="Vector_17" d="M125.489 14.9634L133.579 14.9634C134.699 14.9634 135.606 14.0432 135.606 12.908C135.606 11.7729 134.699 10.8527 133.579 10.8527H125.489C124.369 10.8527 123.462 11.7729 123.462 12.908C123.462 14.0432 124.369 14.9634 125.489 14.9634Z" fill="#161616"/>
</g>
<defs>
<clipPath id="clip0_401_46">
<rect width="205" height="58" fill="white"/>
</clipPath>
</defs>
</svg>
