<svg width="112" height="92" viewBox="0 0 112 92" fill="none" xmlns="http://www.w3.org/2000/svg">
<g id="Group">
<path id="Vector" d="M109.43 17.3552C109.083 16.5078 108.14 16.1226 107.292 16.4693L88.1672 24.308C87.3198 24.6547 86.9346 25.6177 87.2813 26.4458C87.5509 27.0814 88.148 27.4666 88.8028 27.4666C89.0147 27.4666 89.2265 27.4281 89.4191 27.3511L108.544 19.5123C109.392 19.1657 109.777 18.2027 109.43 17.3745V17.3552Z" fill="#A02828"/>
<path id="Vector_2" d="M81.0604 15.3717C81.4841 15.3717 81.8886 15.2177 82.216 14.8902L94.4267 2.7951C95.0623 2.15953 95.0815 1.1195 94.4267 0.483929C93.7911 -0.151644 92.7511 -0.170903 92.1155 0.483929L79.9048 12.5791C79.2693 13.2146 79.25 14.2547 79.9048 14.8902C80.2322 15.2177 80.656 15.3717 81.0604 15.3717Z" fill="#A02828"/>
<path id="Vector_3" d="M109.679 38.5022L92.1336 37.7704C91.1898 37.7126 90.458 38.4252 90.4195 39.3304C90.3809 40.2356 91.0935 41.006 91.9795 41.0445L109.525 41.7764C109.525 41.7764 109.564 41.7764 109.602 41.7764C110.469 41.7764 111.201 41.0831 111.239 40.1971C111.278 39.2919 110.565 38.5215 109.679 38.483V38.5022Z" fill="#A02828"/>
<path id="Vector_4" d="M65.1318 10.1714C63.9377 7.35952 61.5495 5.37576 58.5642 4.74019C55.5789 4.10462 52.5744 4.89427 50.321 6.95507L18.0802 36.3262L6.23542 41.1412C3.75091 42.1427 1.82493 44.0686 0.784904 46.5339C-0.255124 48.9991 -0.255124 51.7148 0.746384 54.1993L5.27243 65.2159C6.2932 67.6811 8.19991 69.6071 10.6652 70.6471C11.917 71.1671 13.2075 71.4175 14.5171 71.4175C15.8268 71.4175 17.0787 71.1671 18.3113 70.6664L19.4091 70.2234L26.8626 88.4239C27.6523 90.3499 29.5205 91.5247 31.485 91.5247C32.1205 91.5247 32.7561 91.4091 33.3724 91.1588L40.8837 88.0772C42.1164 87.5765 43.0794 86.6135 43.5994 85.3808C44.1194 84.1482 44.1194 82.8 43.5994 81.5674L37.051 65.5818L73.3172 64.3106C76.6299 64.2529 79.6922 62.5773 81.4833 59.8039C83.2745 57.0305 83.5826 53.5444 82.2922 50.5014L65.1125 10.1907L65.1318 10.1714ZM17.0594 67.6233C15.4031 68.2974 13.5734 68.2974 11.917 67.6233C10.2607 66.93 8.9703 65.6396 8.29621 63.9832L3.77017 52.9666C3.09608 51.3103 3.09608 49.4806 3.78943 47.805C4.48278 46.1487 5.79244 44.8583 7.44878 44.1842L18.2535 39.793L27.9797 63.1551L17.0594 67.6426V67.6233ZM40.5756 82.7808C40.7489 83.2045 40.7489 83.6667 40.5756 84.0904C40.4022 84.5142 40.0748 84.8416 39.6511 85.0149L32.1398 88.0965C31.2731 88.4624 30.2716 88.0387 29.9057 87.172L22.4521 68.9715L30.156 65.8129L33.5843 65.6974L40.5948 82.8L40.5756 82.7808ZM78.7292 57.9934C77.4966 59.8809 75.5128 60.9787 73.2209 61.0172L31.2346 62.481L21.0654 38.0211L52.5166 9.36254C53.653 8.34177 55.0589 7.78323 56.5419 7.78323C56.9849 7.78323 57.4086 7.82175 57.8516 7.91805C59.7776 8.34177 61.3376 9.61291 62.108 11.4426L79.2877 51.7533C80.1737 53.8333 79.9811 56.0867 78.7484 57.9742L78.7292 57.9934Z" fill="#A02828"/>
</g>
</svg>
