<svg width="101" height="99" viewBox="0 0 101 99" fill="none" xmlns="http://www.w3.org/2000/svg">
<g id="Group">
<path id="Vector" d="M100.382 59.166V41.1966H87.8823C86.9386 37.2099 85.3593 33.3964 83.1637 29.8719L91.8498 21.1857L79.1576 8.49356L70.4522 17.199C66.9662 15.0419 63.2298 13.4818 59.2816 12.5381V0H41.3122V12.4611C37.2484 13.4048 33.3772 15.0034 29.8141 17.2375L21.0702 8.49356L8.378 21.1857L17.1604 29.9682C15.0034 33.4927 13.4241 37.2677 12.4996 41.2159H0V59.1853H12.4996C13.4433 63.172 15.0226 66.9469 17.199 70.4907L8.39726 79.2925L21.0894 91.9846L30.7001 82.374C31.2586 81.8155 31.2586 80.891 30.7001 80.3325C30.1415 79.774 29.2171 79.774 28.6585 80.3325L21.0894 87.9016L12.4803 79.2925L20.8968 70.8759L20.242 69.8937C17.719 66.061 15.9856 61.8816 15.0804 57.4519L14.8493 56.2963H2.90821V44.1049H14.8493L15.0804 42.9493C15.9856 38.5581 17.719 34.3787 20.2228 30.546L20.8583 29.5637L12.4803 21.1857L21.0894 12.5766L29.4482 20.9354L30.4304 20.2805C34.3016 17.719 38.5581 15.9471 43.0648 15.0419L44.2204 14.8108V2.88897H56.4118V14.8493L57.5674 15.0804C61.9587 16.0049 66.0995 17.719 69.8937 20.2228L70.8759 20.8776L79.1962 12.5574L87.8053 21.1665L79.5043 29.4674L80.1591 30.4497C82.6822 34.2824 84.4348 38.481 85.34 42.9108L85.5711 44.0663H97.5122V56.2578H85.5711L85.34 57.4134C84.4156 61.8816 82.6629 66.0803 80.1206 69.9322L79.4658 70.9145L88.0364 79.4851L79.4273 88.0942L71.6656 80.3325C71.1071 79.774 70.1826 79.774 69.624 80.3325C69.0655 80.891 69.0655 81.8155 69.624 82.374L79.4273 92.1772L92.1195 79.4851L83.1637 70.5293C85.3593 66.9855 86.9578 63.172 87.9016 59.1467H100.401L100.382 59.166Z" fill="#A02828"/>
<path id="Vector_2" d="M50.5377 25.0562C36.4589 25.0562 25.0186 36.5928 25.0186 50.7872C25.0186 58.4718 28.389 65.675 34.2632 70.5862C35.7462 71.8189 36.8055 73.3789 37.4026 75.093H36.4974C35.7077 75.093 35.0529 75.7479 35.0529 76.5375C35.0529 77.3272 35.7077 77.982 36.4974 77.982H37.9804L38.1922 80.2354H36.4781C35.6885 80.2354 35.0336 80.8902 35.0336 81.6799C35.0336 82.4695 35.6885 83.1243 36.4781 83.1243H38.4619L38.6737 85.3777H36.4589C35.6692 85.3777 35.0144 86.0326 35.0144 86.8222C35.0144 87.6119 35.6692 88.2667 36.4589 88.2667H38.9434L39.3093 92.0994C39.3863 92.8313 40.0027 93.4091 40.7538 93.4091H43.4502V96.7217C43.4502 97.5114 44.105 98.1662 44.8946 98.1662H55.969C56.7587 98.1662 57.4135 97.5114 57.4135 96.7217V93.4091H60.495C61.2462 93.4091 61.8625 92.8313 61.9395 92.0801L62.2669 88.2667H64.5781C65.3678 88.2667 66.0226 87.6119 66.0226 86.8222C66.0226 86.0326 65.3678 85.3777 64.5781 85.3777H62.5173L62.7099 83.1243H64.5781C65.3678 83.1243 66.0226 82.4695 66.0226 81.6799C66.0226 80.8902 65.3678 80.2354 64.5781 80.2354H62.9603L63.1529 77.982H64.5781C65.3678 77.982 66.0226 77.3272 66.0226 76.5375C66.0226 75.7479 65.3678 75.093 64.5781 75.093H63.7114C64.2892 73.3789 65.3485 71.8189 66.8315 70.567C72.6865 65.6557 76.0569 58.4526 76.0569 50.7872C76.0569 36.5928 64.5974 25.0562 50.5377 25.0562ZM54.5438 95.258H46.3584V93.3898H54.5438V95.258ZM59.1854 90.5008H42.0827L41.8709 88.2474H59.378L59.1854 90.5008ZM59.6284 85.3585H41.582L41.3701 83.1051H59.821L59.6284 85.3585ZM60.0713 80.2161H41.0812L40.8693 77.9627H60.2639L60.0713 80.2161ZM64.9826 68.3521C62.8255 70.1625 61.3425 72.5122 60.6876 75.093H40.4071C39.733 72.5122 38.25 70.1818 36.0929 68.3714C30.8735 64.0187 27.8883 57.6052 27.8883 50.7872C27.8883 38.1913 38.0382 27.9451 50.5185 27.9451C62.9988 27.9451 73.1487 38.1913 73.1487 50.7872C73.1487 57.6052 70.1634 63.9994 64.9633 68.3521H64.9826Z" fill="#A02828"/>
<path id="Vector_3" d="M54.8707 38.8083C53.2914 38.8083 51.6543 39.3476 50.1713 40.2528C48.6112 39.3283 46.8971 38.8083 45.2023 38.8083C42.6022 38.8083 40.3873 39.8484 38.9236 41.7358C37.5369 43.527 36.9783 45.973 37.4983 47.976C38.2302 50.7301 43.3148 61.3037 43.8926 62.4978C44.2393 63.2105 45.106 63.5186 45.8186 63.1719C46.5312 62.8253 46.8393 61.9586 46.4927 61.246C44.9519 58.0681 40.8496 49.3627 40.291 47.2441C40.0599 46.3196 40.2332 44.7789 41.1962 43.5077C41.8318 42.6795 43.0452 41.6973 45.183 41.6973C46.0112 41.6973 46.8586 41.8899 47.706 42.2558C46.743 43.2766 45.9341 44.4707 45.3949 45.7804C44.0467 49.016 44.5859 52.2131 46.8779 54.5243C48.4572 56.1036 51.0187 56.2962 52.8291 54.948C55.5448 52.945 56.4692 49.9212 55.3907 46.6278C54.8514 44.9714 53.8691 43.4499 52.6365 42.198C53.3684 41.8706 54.1388 41.6973 54.8707 41.6973C56.7966 41.6973 58.2219 42.2173 59.0886 43.2573C60.2634 44.6633 60.2249 46.6856 60.1093 47.3404C59.936 48.3612 57.0278 55.2176 54.3314 61.246C54.004 61.9778 54.3314 62.8253 55.0633 63.1527C55.2559 63.2297 55.4484 63.2875 55.6603 63.2875C56.2188 63.2875 56.7389 62.9601 56.9892 62.4401C57.933 60.3407 62.6516 49.7286 62.979 47.8412C63.2101 46.4545 63.1331 43.5462 61.3227 41.3891C59.8782 39.675 57.7211 38.7891 54.8899 38.7891L54.8707 38.8083ZM52.6558 47.533C53.1373 48.9967 53.2528 51.0575 51.1343 52.6368C50.4602 53.1376 49.4972 53.0606 48.9387 52.502C47.0705 50.6146 47.4364 48.4189 48.072 46.8974C48.5535 45.7611 49.2853 44.7211 50.1905 43.8736C51.3076 44.8944 52.2128 46.1656 52.675 47.5523L52.6558 47.533Z" fill="#A02828"/>
</g>
</svg>
