<svg width="92" height="94" viewBox="0 0 92 94" fill="none" xmlns="http://www.w3.org/2000/svg">
<g id="Group">
<path id="Vector" d="M18.6049 58.126C15.2537 58.126 12.5381 55.4104 12.5381 52.0592V24.3251C12.5381 23.8243 12.2685 23.3428 11.8255 23.0925L4.3527 18.8361L11.787 14.8878C12.2492 14.6374 12.5381 14.1559 12.5381 13.6359V8.87875C12.5381 5.52755 15.2537 2.81193 18.6049 2.81193H74.0538C77.405 2.81193 80.1206 5.52755 80.1206 8.87875V40.7537C80.1206 41.5241 80.7562 42.1596 81.5266 42.1596C82.297 42.1596 82.9326 41.5241 82.9326 40.7537V8.89801C82.9326 3.98677 78.9458 0 74.0346 0H18.5857C13.6744 0 9.68766 3.98677 9.68766 8.89801V12.8077L0.75113 17.5456C0.288895 17.7768 0 18.2583 0 18.7783C0 19.2983 0.269627 19.7798 0.712602 20.0302L9.68766 25.1533V52.0592C9.68766 56.9704 13.6744 60.9572 18.5857 60.9572C19.3561 60.9572 19.9916 60.3216 19.9916 59.5512C19.9916 58.7808 19.3561 58.1452 18.5857 58.1452L18.6049 58.126Z" fill="#A02828"/>
<path id="Vector_2" d="M89.8286 70.7028C91.3116 68.7383 92.0242 66.3308 91.8124 63.9812C91.6583 62.2093 90.965 60.5914 89.8864 59.3588C91.5235 56.7587 91.639 54.1009 90.156 51.9053C87.4212 47.8992 79.1202 45.5688 66.5821 49.1511C66.2932 47.2059 67.1021 44.1436 67.9495 40.9465C68.7584 37.8264 69.6829 34.3018 69.9718 30.6425C70.0681 28.0424 68.951 25.5964 66.8325 23.7668C65.3109 22.4764 63.2887 22.0526 61.3819 22.6497C59.5137 23.2467 58.127 24.7105 57.6455 26.5979C54.5062 39.0205 47.1105 51.9823 39.5606 58.3573C38.6362 57.6639 37.4998 57.221 36.2672 57.221H28.0818C25.058 57.221 22.5928 59.6862 22.5928 62.71V86.4958C22.5928 89.5196 25.058 91.9848 28.0818 91.9848H36.2672C37.6924 91.9848 38.9636 91.4263 39.9458 90.5404C45.9163 92.2352 55.4692 93.179 65.3109 93.179C70.2799 93.179 75.3068 92.9478 79.9291 92.4278C82.8951 91.7152 85.3026 89.9241 86.6893 87.3625C87.8063 85.3402 88.1338 83.0291 87.6715 80.9297C90.1945 78.3297 91.0613 74.2659 89.8286 70.7028ZM28.0625 89.1537C26.5988 89.1537 25.3854 87.9596 25.3854 86.4766V62.6907C25.3854 61.227 26.5795 60.0136 28.0625 60.0136H36.2479C37.7117 60.0136 38.925 61.2077 38.925 62.6907V86.4766C38.925 87.9403 37.7309 89.1537 36.2479 89.1537H28.0625ZM87.1515 69.5087C86.7856 69.9324 86.6893 70.5102 86.9204 71.0302C88.23 73.9577 87.4982 77.4822 85.1678 79.4082C84.7248 79.7934 84.5515 80.4097 84.7441 80.949C85.3026 82.5283 85.11 84.3772 84.2048 86.0143C83.184 87.8633 81.4314 89.1729 79.4283 89.6544C66.7169 91.0219 50.2691 90.29 41.4866 88.0559C41.6407 87.5551 41.737 87.0351 41.737 86.4958V62.71C41.737 61.9396 41.5829 61.227 41.294 60.5722C49.2676 53.8698 57.087 40.2724 60.3612 27.2913C60.5923 26.3476 61.2664 25.635 62.2101 25.3461C63.1731 25.0379 64.2131 25.2498 64.9643 25.9046C66.428 27.1565 67.1984 28.8128 67.1213 30.4884C66.8517 33.8396 65.9658 37.2486 65.1761 40.2339C63.9628 44.8755 62.9227 48.8622 64.4057 51.5779C64.7332 52.1749 65.4265 52.4446 66.0621 52.252C77.3868 48.7467 85.5722 50.2297 87.8064 53.5038C89.039 55.3143 87.9989 57.298 86.9204 58.6655C86.6893 58.9543 86.5737 59.3396 86.6123 59.7247C86.6508 60.1099 86.8434 60.4374 87.1515 60.6685C88.1723 61.4581 88.8464 62.7678 88.9812 64.2508C89.1545 66.119 88.4804 68.0257 87.1322 69.528L87.1515 69.5087Z" fill="#A02828"/>
</g>
</svg>
